# xmcd CD database file
#
# Track frame offsets:
#	150
#	13477
#	25652
#	38295
#	51025
#	64787
#	78540
#	89825
#	102165
#	112902
#	127077
#	140762
#	166110
#	208262
#	224235
#	241842
#	264760
#
# Disc length: 3742 seconds
#
# Revision: 1
# Processed by: cddbd v1.5.1PL0 Copyright (c) Steve Scherf et al.
# Submitted via: CDex 1.50beta10
#
DISCID=f10e9c11
DTITLE=Gillespie, Dizzy - Anthology
DYEAR=1999
DGENRE=Jazz
TTITLE0=Blue 'N' Boogie
TTITLE1=Groovin' High
TTITLE2=Dizzy Atmosphere
TTITLE3=All the Things You Are
TTITLE4=Hot House
TTITLE5=Oop Bop Sh'bam
TTITLE6=Our Delight
TTITLE7=Things to Come
TTITLE8=Ray's Idea
TTITLE9=Emanon
TTITLE10=Good Dues Blues
TTITLE11=Oop-Pop-A-Da [*]
TTITLE12=Kush [*]
TTITLE13=Pau de Arara [*]
TTITLE14=Lorraine [*]
TTITLE15=Long Long Summer [*]
TTITLE16=Desafinado [*]
EXTD=YEAR: 1999
EXTT0=
EXTT1=
EXTT2=
EXTT3=
EXTT4=
EXTT5=
EXTT6=
EXTT7=
EXTT8=
EXTT9=
EXTT10=
EXTT11=
EXTT12=
EXTT13=
EXTT14=
EXTT15=
EXTT16=
PLAYORDER=
